<?xml version="1.0" encoding="UTF-8"?>
<!DOCTYPE svg PUBLIC "-//W3C//DTD SVG 1.1//EN" "http://www.w3.org/Graphics/SVG/1.1/DTD/svg11.dtd">
<!-- Creator: CorelDRAW -->
<svg xmlns="http://www.w3.org/2000/svg" xml:space="preserve" width="2048px" height="2048px" style="shape-rendering:geometricPrecision; text-rendering:geometricPrecision; image-rendering:optimizeQuality; fill-rule:evenodd; clip-rule:evenodd"
viewBox="0 0 2048 2048"
 xmlns:xlink="http://www.w3.org/1999/xlink">
 <defs>
  <style type="text/css">
   <![CDATA[
    .fil2 {fill:none}
    .fil3 {fill:#03A9F4}
    .fil4 {fill:#041821}
    .fil5 {fill:#263238}
    .fil1 {fill:#E53935}
    .fil0 {fill:#EF5350}
    .fil8 {fill:#00C853;fill-rule:nonzero}
    .fil9 {fill:#2196F3;fill-rule:nonzero}
    .fil6 {fill:#37474F;fill-rule:nonzero}
    .fil7 {fill:#D50000;fill-rule:nonzero}
    .fil10 {fill:#FFC400;fill-rule:nonzero}
   ]]>
  </style>
   <clipPath id="id0">
    <path d="M1024 -0.0011811c565.541,0 1024,458.461 1024,1024 0,565.541 -458.461,1024 -1024,1024 -565.541,0 -1024,-458.461 -1024,-1024 0,-565.541 458.461,-1024 1024,-1024z"/>
   </clipPath>
 </defs>
 <g id="Layer_x0020_1">
  <metadata id="CorelCorpID_0Corel-Layer"/>
  <path class="fil0" d="M1024 -0.0011811c565.541,0 1024,458.461 1024,1024 0,565.541 -458.461,1024 -1024,1024 -565.541,0 -1024,-458.461 -1024,-1024 0,-565.541 458.461,-1024 1024,-1024z"/>
  <g style="clip-path:url(#id0)">
   <g id="_464374632">
    <g>
     <polygon id="_4222747281" class="fil1" points="1354.79,463.999 2490.67,1599.88 2517.99,1666.22 1382.11,530.333 "/>
     <polygon id="_422275280" class="fil1" points="1524.09,559.956 2659.98,1695.84 2660.89,1696.99 2661.53,1698.15 1525.65,562.271 1525.01,561.11 "/>
     <polygon id="_80306040" class="fil1" points="1526.08,560.248 2661.96,1696.13 2661.96,1700.18 1526.08,564.293 "/>
     <polygon id="_80306184" class="fil1" points="1526.08,564.293 2661.96,1700.18 2661.96,1950.49 1526.08,814.606 "/>
     <polygon id="_80306208" class="fil1" points="1526.08,814.606 2661.96,1950.49 2661.79,1951.76 2661.28,1953.03 2660.44,1954.29 2659.26,1955.54 2657.76,1956.78 2655.94,1958.01 2653.8,1959.23 2651.35,1960.44 2648.59,1961.64 2645.52,1962.83 2642.16,1964.01 2638.49,1965.17 2634.53,1966.32 2630.29,1967.46 2625.76,1968.59 2620.95,1969.7 2615.87,1970.8 2610.51,1971.88 2604.89,1972.95 2599,1974 2592.85,1975.03 2586.45,1976.06 2579.8,1977.06 2572.9,1978.05 2565.76,1979.01 2558.38,1979.97 2550.77,1980.9 2542.93,1981.81 2534.86,1982.71 2526.58,1983.58 2518.07,1984.44 2509.35,1985.28 1373.47,849.394 1382.19,848.558 1390.69,847.701 1398.98,846.826 1407.05,845.931 1414.89,845.017 1422.5,844.084 1429.88,843.132 1437.02,842.163 1443.92,841.176 1450.57,840.173 1456.97,839.153 1463.12,838.117 1469,837.064 1474.63,835.997 1479.98,834.914 1485.07,833.816 1489.88,832.705 1494.41,831.581 1498.65,830.442 1502.61,829.29 1506.27,828.126 1509.64,826.949 1512.71,825.761 1515.47,824.562 1517.92,823.352 1520.06,822.131 1521.88,820.9 1523.38,819.659 1524.56,818.409 1525.4,817.15 1525.91,815.881 "/>
     <polygon id="_80305176" class="fil1" points="1373.47,849.394 2509.35,1985.28 2517.99,2006.25 1382.11,870.367 "/>
     <polygon id="_80304528" class="fil1" points="1524.09,899.99 2659.98,2035.87 2660.89,2037.03 2661.53,2038.19 1525.65,902.305 1525.01,901.144 "/>
     <polygon id="_80305416" class="fil1" points="1526.08,900.282 2661.96,2036.16 2661.96,2040.21 1526.08,904.327 "/>
     <polygon id="_80304480" class="fil1" points="1526.08,904.327 2661.96,2040.21 2661.96,2290.52 1526.08,1154.64 "/>
     <polygon id="_80304816" class="fil1" points="1526.08,1154.64 2661.96,2290.52 2661.79,2291.79 2661.29,2293.05 2660.45,2294.31 2659.29,2295.55 2657.81,2296.79 2656,2298.01 2653.88,2299.23 2651.46,2300.43 2648.72,2301.62 2645.68,2302.81 2642.35,2303.98 2638.72,2305.14 2634.8,2306.28 2630.59,2307.42 2626.11,2308.54 2621.34,2309.65 2616.31,2310.74 2611,2311.82 2605.43,2312.88 2599.6,2313.93 2593.51,2314.96 2587.17,2315.98 2580.57,2316.98 2573.74,2317.96 2566.66,2318.93 2559.35,2319.88 2551.81,2320.81 2544.04,2321.72 2536.04,2322.61 2527.83,2323.49 2519.4,2324.34 2510.76,2325.18 1374.88,1189.3 1383.52,1188.46 1391.95,1187.61 1400.16,1186.73 1408.16,1185.84 1415.93,1184.93 1423.47,1184 1430.78,1183.05 1437.86,1182.08 1444.69,1181.1 1451.28,1180.1 1457.63,1179.08 1463.72,1178.05 1469.55,1177 1475.12,1175.93 1480.43,1174.86 1485.46,1173.76 1490.23,1172.66 1494.71,1171.54 1498.92,1170.4 1502.84,1169.25 1506.47,1168.1 1509.8,1166.93 1512.84,1165.74 1515.57,1164.55 1518,1163.34 1520.12,1162.13 1521.92,1160.9 1523.41,1159.67 1524.57,1158.42 1525.41,1157.17 1525.91,1155.91 "/>
     <polygon id="_80304624" class="fil1" points="1374.88,1189.3 2510.76,2325.18 2517.99,2342.74 1382.11,1206.86 "/>
     <polygon id="_80305224" class="fil1" points="1524.09,1236.49 2659.98,2372.37 2660.89,2373.52 2661.53,2374.68 1525.65,1238.8 1525.01,1237.64 "/>
     <polygon id="_80306112" class="fil1" points="1526.08,1236.78 2661.96,2372.66 2661.96,2376.71 1526.08,1240.82 "/>
     <polygon id="_80305536" class="fil1" points="1526.08,1240.82 2661.96,2376.71 2661.96,2627.02 1526.08,1491.13 "/>
     <polygon id="_80304960" class="fil1" points="1526.08,1491.13 2661.96,2627.02 2661.91,2627.72 2661.75,2628.43 2661.49,2629.13 2661.13,2629.83 2660.66,2630.53 2660.1,2631.22 2659.43,2631.91 2658.66,2632.6 2657.79,2633.29 2656.83,2633.97 2655.77,2634.65 2654.6,2635.33 2653.35,2636 2651.99,2636.67 2650.55,2637.34 2649,2638 2647.37,2638.66 2645.64,2639.32 2643.82,2639.97 2641.9,2640.62 2639.9,2641.26 2637.81,2641.91 2635.62,2642.54 2633.35,2643.18 2630.99,2643.81 2628.54,2644.43 2626.01,2645.05 2623.39,2645.67 2620.69,2646.29 2617.9,2646.89 2615.03,2647.5 2612.07,2648.1 1476.19,1512.21 1479.14,1511.61 1482.02,1511.01 1484.81,1510.4 1487.51,1509.79 1490.13,1509.17 1492.66,1508.55 1495.11,1507.93 1497.47,1507.3 1499.74,1506.66 1501.93,1506.02 1504.02,1505.38 1506.02,1504.74 1507.94,1504.09 1509.76,1503.44 1511.49,1502.78 1513.12,1502.12 1514.66,1501.46 1516.11,1500.79 1517.47,1500.12 1518.72,1499.44 1519.88,1498.77 1520.95,1498.09 1521.91,1497.41 1522.78,1496.72 1523.55,1496.03 1524.21,1495.34 1524.78,1494.65 1525.25,1493.95 1525.61,1493.25 1525.87,1492.55 1526.03,1491.84 "/>
     <polygon id="_80305848" class="fil1" points="521.92,560.248 1657.8,1696.13 1657.81,1696.38 1657.83,1696.64 1657.86,1696.89 1657.91,1697.15 1657.97,1697.4 1658.04,1697.65 1658.13,1697.9 1658.23,1698.15 522.35,562.271 522.25,562.02 522.162,561.767 522.088,561.515 522.028,561.263 521.98,561.009 521.947,560.756 521.927,560.502 "/>
     <polygon id="_80306016" class="fil1" points="571.812,1512.22 1707.69,2648.1 1704.74,2647.5 1701.86,2646.89 1699.08,2646.29 1696.37,2645.67 1693.75,2645.06 1691.22,2644.43 1688.77,2643.81 1686.41,2643.18 1684.14,2642.54 1681.96,2641.91 1679.86,2641.27 1677.86,2640.62 1675.95,2639.97 1674.12,2639.32 1672.39,2638.66 1670.76,2638 1669.22,2637.34 1667.77,2636.67 1666.42,2636 1665.16,2635.33 1664,2634.65 1662.93,2633.97 1661.97,2633.29 1661.1,2632.6 525.22,1496.72 526.087,1497.41 527.053,1498.09 528.116,1498.77 529.277,1499.44 530.534,1500.12 531.887,1500.79 533.335,1501.46 534.878,1502.12 536.514,1502.78 538.243,1503.44 540.064,1504.09 541.978,1504.74 543.981,1505.38 546.075,1506.02 548.258,1506.66 550.53,1507.3 552.89,1507.93 555.337,1508.55 557.871,1509.17 560.49,1509.79 563.195,1510.4 565.984,1511.01 568.856,1511.62 "/>
     <polygon id="_80305440" class="fil1" points="521.92,1236.78 1657.8,2372.66 1657.81,2372.91 1657.83,2373.17 1657.86,2373.42 1657.91,2373.68 1657.97,2373.93 1658.04,2374.18 1658.13,2374.43 1658.23,2374.68 522.35,1238.8 522.25,1238.55 522.162,1238.3 522.088,1238.04 522.028,1237.79 521.98,1237.54 521.947,1237.29 521.927,1237.03 "/>
     <polygon id="_80304504" class="fil1" points="673.125,1189.3 1809.01,2325.18 1800.36,2324.34 1791.93,2323.49 1783.72,2322.61 1775.72,2321.72 1767.95,2320.81 1760.41,2319.88 1753.1,2318.93 1746.02,2317.96 1739.19,2316.98 1732.6,2315.98 1726.25,2314.96 1720.17,2313.93 1714.33,2312.88 1708.76,2311.82 1703.46,2310.74 1698.42,2309.65 1693.65,2308.54 1689.17,2307.42 1684.96,2306.28 1681.04,2305.14 1677.41,2303.98 1674.08,2302.81 1671.04,2301.62 1668.31,2300.43 1665.88,2299.23 1663.76,2298.01 1661.96,2296.79 1660.47,2295.55 524.591,1159.67 526.075,1160.9 527.88,1162.13 529.998,1163.34 532.426,1164.55 535.161,1165.74 538.198,1166.93 541.533,1168.1 545.163,1169.25 549.082,1170.4 553.287,1171.54 557.774,1172.66 562.537,1173.76 567.574,1174.86 572.881,1175.93 578.452,1177 584.285,1178.05 590.373,1179.08 596.716,1180.1 603.306,1181.1 610.14,1182.08 617.216,1183.05 624.527,1184 632.071,1184.93 639.843,1185.84 647.838,1186.73 656.052,1187.61 664.483,1188.46 "/>
     <polygon id="_80306064" class="fil1" points="521.92,900.282 1657.8,2036.16 1657.81,2036.42 1657.83,2036.67 1657.86,2036.92 1657.91,2037.18 1657.97,2037.43 1658.04,2037.68 1658.13,2037.94 1658.23,2038.19 522.35,902.305 522.25,902.053 522.162,901.801 522.088,901.549 522.028,901.296 521.98,901.042 521.947,900.79 521.927,900.536 "/>
     <polygon id="_80305872" class="fil1" points="674.529,849.394 1810.41,1985.28 1801.69,1984.44 1793.19,1983.58 1784.9,1982.71 1776.83,1981.81 1768.99,1980.9 1761.38,1979.97 1754,1979.01 1746.86,1978.05 1739.96,1977.06 1733.31,1976.06 1726.91,1975.03 1720.76,1974 1714.88,1972.95 1709.25,1971.88 1703.9,1970.8 1698.81,1969.7 1694,1968.59 1689.47,1967.46 1685.23,1966.32 1681.27,1965.17 1677.61,1964.01 1674.24,1962.83 1671.17,1961.64 1668.41,1960.44 1665.96,1959.23 1663.82,1958.01 1662,1956.78 1660.5,1955.54 524.618,819.659 526.117,820.9 527.939,822.131 530.078,823.352 532.53,824.562 535.293,825.761 538.359,826.949 541.726,828.126 545.391,829.29 549.348,830.442 553.593,831.581 558.122,832.705 562.932,833.816 568.016,834.914 573.372,835.997 578.996,837.064 584.884,838.117 591.029,839.153 597.429,840.173 604.081,841.176 610.979,842.163 618.119,843.132 625.497,844.084 633.109,845.017 640.95,845.931 649.017,846.826 657.305,847.701 665.81,848.558 "/>
     <polygon id="_80305128" class="fil1" points="1476.19,1540.36 2612.07,2676.25 2611.48,2678.49 2609.73,2680.71 2606.86,2682.89 2602.88,2685.04 2597.83,2687.15 2591.74,2689.22 2584.63,2691.25 2576.53,2693.23 2567.48,2695.16 2557.49,2697.05 2546.6,2698.87 2534.84,2700.64 2522.24,2702.35 2508.81,2704 2494.6,2705.59 2479.63,2707.1 2463.92,2708.55 2447.52,2709.92 2430.43,2711.21 2412.7,2712.43 2394.36,2713.57 2375.42,2714.62 2355.92,2715.58 2335.89,2716.45 2315.36,2717.24 2294.35,2717.92 2272.89,2718.51 2251.01,2719 2228.75,2719.38 2206.12,2719.66 2183.15,2719.83 2159.88,2719.88 2136.61,2719.83 2113.65,2719.66 2091.02,2719.38 2068.75,2719 2046.87,2718.51 2025.41,2717.92 2004.4,2717.24 1983.87,2716.45 1963.84,2715.58 1944.34,2714.62 1925.41,2713.57 1907.06,2712.43 1889.33,2711.21 1872.25,2709.92 1855.84,2708.55 1840.14,2707.1 1825.16,2705.59 1810.95,2704 1797.53,2702.35 1784.92,2700.64 1773.16,2698.87 1762.27,2697.05 1752.28,2695.16 1743.23,2693.23 1735.13,2691.25 1728.02,2689.22 1721.93,2687.15 1716.88,2685.04 1712.9,2682.89 1710.03,2680.71 574.147,1544.83 577.022,1547.01 580.999,1549.16 586.048,1551.27 592.141,1553.34 599.25,1555.37 607.347,1557.35 616.402,1559.28 626.389,1561.16 637.277,1562.99 649.039,1564.76 661.646,1566.47 675.07,1568.12 689.282,1569.7 704.254,1571.22 719.959,1572.66 736.366,1574.04 753.448,1575.33 771.178,1576.55 789.524,1577.68 808.46,1578.73 827.958,1579.7 847.987,1580.57 868.522,1581.35 889.533,1582.04 910.991,1582.63 932.868,1583.11 955.136,1583.5 977.766,1583.78 1000.73,1583.94 1024,1584 1047.27,1583.94 1070.23,1583.78 1092.86,1583.5 1115.13,1583.11 1137.01,1582.63 1158.47,1582.04 1179.48,1581.35 1200.01,1580.57 1220.04,1579.7 1239.54,1578.73 1258.48,1577.68 1276.82,1576.55 1294.55,1575.33 1311.63,1574.04 1328.04,1572.66 1343.75,1571.22 1358.72,1569.7 1372.93,1568.12 1386.35,1566.47 1398.96,1564.76 1410.72,1562.99 1421.61,1561.16 1431.6,1559.28 1440.65,1557.35 1448.75,1555.37 1455.86,1553.34 1461.95,1551.27 1467,1549.16 1470.98,1547.01 1473.85,1544.83 1475.6,1542.61 "/>
     <polygon id="_425542960" class="fil1" points="1476.19,1512.21 2612.07,2648.1 2612.07,2676.25 1476.19,1540.36 "/>
    </g>
    <path id="_464384208" class="fil1" d="M1354.79 463.999l27.3248 66.3343c84.482,8.29607 138.253,19.513 143.539,31.9382 0.285827,-0.670867 0.429922,-1.34528 0.429922,-2.02323l0 4.04528 0 250.312c0,13.6512 -58.493,25.9819 -152.609,34.7882l8.63977 20.9729c84.482,8.29607 138.253,19.513 143.539,31.9382 0.285827,-0.670867 0.429922,-1.34528 0.429922,-2.02323l0 4.04528 0 250.314c0,13.5815 -57.9119,25.8591 -151.205,34.6559l7.23544 17.5654c84.482,8.29607 138.253,19.5142 143.539,31.9382 0.285827,-0.670867 0.429922,-1.3441 0.429922,-2.02205l0 4.04528 0 250.311c0,7.5567 -17.9232,14.7083 -49.8922,21.0803l0 28.1481c0,24.1004 -202.451,43.6382 -452.188,43.6382 -249.737,0 -452.188,-19.5378 -452.188,-43.6382l0 -28.1457c-31.9689,-6.37441 -49.8922,-13.526 -49.8922,-21.0827l0 -250.311 0 -4.04528c0,0.677953 0.144095,1.35236 0.429922,2.02205 5.2878,-12.4252 59.0587,-23.6421 143.539,-31.9382l7.23544 -17.5654c-93.2942,-8.79686 -151.205,-21.0744 -151.205,-34.6559l0 -250.314 0 -4.04528c0,0.677953 0.144095,1.35236 0.429922,2.02323 5.28544,-12.4252 59.0563,-23.6421 143.539,-31.9382l8.63977 -20.9729c-94.1162,-8.80631 -152.609,-21.137 -152.609,-34.7882l0 -250.312 0 -4.04528c0,0.677953 0.144095,1.35236 0.429922,2.02323 5.28544,-12.4252 59.0563,-23.6421 143.539,-31.9382l27.3248 -66.3343 661.571 0z"/>
   </g>
  </g>
  <path class="fil2" d="M1024 -0.0011811c565.541,0 1024,458.461 1024,1024 0,565.541 -458.461,1024 -1024,1024 -565.541,0 -1024,-458.461 -1024,-1024 0,-565.541 458.461,-1024 1024,-1024z"/>
  <path class="fil3" d="M1476.19 1512.21l0 28.1481c0,24.1004 -202.451,43.637 -452.188,43.637 -249.737,0 -452.188,-19.5366 -452.188,-43.637l0 -28.1481c81.241,16.1988 253.19,27.3721 452.188,27.3721 198.998,0 370.947,-11.1732 452.188,-27.3721z"/>
  <ellipse class="fil4" cx="1024" cy="1240.82" rx="502.079" ry="48.4515"/>
  <path class="fil5" d="M1526.08 1236.78l0 254.358c0,26.7591 -224.789,48.4512 -502.08,48.4512 -277.291,0 -502.08,-21.6921 -502.08,-48.4512l0 -254.358c0,26.7591 224.789,48.4512 502.08,48.4512 277.291,0 502.08,-21.6921 502.08,-48.4512z"/>
  <path class="fil3" d="M1354.79 1140.53l36.6154 88.8887c-91.6583,9.49371 -222.331,15.4335 -367.401,15.4335 -145.07,0 -275.743,-5.93977 -367.401,-15.4335l36.6154 -88.8887 661.571 0z"/>
  <path class="fil6" d="M1476.19 1390.62c-41.6433,7.19882 -86.0871,12.0957 -131.913,15.6732 -46.9855,3.66733 -96.5115,6 -146.156,8.0315l0 -28.1965c48.1571,-1.97599 96.5316,-4.27796 144.058,-7.9878 47.1933,-3.68268 92.4969,-8.70709 134.01,-16.1032l0 28.5827z"/>
  <path class="fil7" d="M792.807 1384.18c16.539,0.790158 33.0922,1.49882 49.6181,2.17323l-1.10315 28.1516c-16.2095,-0.661418 -32.4095,-1.35236 -48.515,-2.11063l0 -28.2142z"/>
  <path class="fil8" d="M714.386 1379.65c17.1803,1.20827 34.4516,2.25355 51.7666,3.18425l0 28.2343c-17.4602,-0.922442 -34.754,-1.94646 -51.7666,-3.12284l0 -28.2957z"/>
  <path class="fil9" d="M635.964 1372.69c16.9099,1.87795 34.1988,3.5067 51.7666,4.94055l0 28.3217c-17.4945,-1.41142 -34.7752,-3.02244 -51.7666,-4.88622l0 -28.376z"/>
  <path class="fil10" d="M559.88 1361.86c15.9461,2.87126 32.4603,5.38819 49.4292,7.61103l0 28.4197c-16.9087,-2.17914 -33.4772,-4.65237 -49.6193,-7.47402l0 -27.4973 0.190158 -1.05945z"/>
  <ellipse class="fil4" cx="1024" cy="904.327" rx="502.079" ry="48.4515"/>
  <path class="fil5" d="M1526.08 900.282l0 254.359c0,26.7591 -224.789,48.4512 -502.08,48.4512 -277.291,0 -502.08,-21.6921 -502.08,-48.4512l0 -254.359c0,26.7603 224.789,48.4524 502.08,48.4524 277.291,0 502.08,-21.6921 502.08,-48.4524z"/>
  <path class="fil3" d="M1354.79 804.034l36.6154 88.8887c-91.6583,9.49253 -222.331,15.4323 -367.401,15.4323 -145.07,0 -275.743,-5.93977 -367.401,-15.4323l36.6154 -88.8887 661.571 0z"/>
  <path class="fil6" d="M1476.19 1054.13c-41.6433,7.19882 -86.0871,12.0969 -131.913,15.6732 -46.9855,3.66851 -96.5115,6 -146.156,8.03268l0 -28.1977c48.1571,-1.9748 96.5316,-4.27796 144.058,-7.98662 47.1933,-3.68386 92.4969,-8.70709 134.01,-16.1032l0 28.5815z"/>
  <path class="fil7" d="M792.807 1047.68c16.539,0.788977 33.0922,1.49882 49.6181,2.17205l-1.10315 28.1528c-16.2095,-0.661418 -32.4095,-1.35354 -48.515,-2.11181l0 -28.213z"/>
  <path class="fil8" d="M714.386 1043.15c17.1803,1.20827 34.4516,2.25355 51.7666,3.18425l0 28.2343c-17.4602,-0.922442 -34.754,-1.94646 -51.7666,-3.12284l0 -28.2957z"/>
  <path class="fil9" d="M635.964 1036.19c16.9099,1.87677 34.1988,3.5067 51.7666,4.93937l0 28.3229c-17.4945,-1.41142 -34.7752,-3.02244 -51.7666,-4.88622l0 -28.376z"/>
  <path class="fil10" d="M559.88 1025.37c15.9461,2.87126 32.4603,5.38819 49.4292,7.61103l0 28.4197c-16.9087,-2.18032 -33.4772,-4.65237 -49.6193,-7.47402l0 -27.4973 0.190158 -1.05945z"/>
  <ellipse class="fil4" cx="1024" cy="564.294" rx="502.079" ry="48.4515"/>
  <path class="fil5" d="M1526.08 560.248l0 254.359c0,26.7591 -224.789,48.4512 -502.08,48.4512 -277.291,0 -502.08,-21.6921 -502.08,-48.4512l0 -254.359c0,26.7603 224.789,48.4524 502.08,48.4524 277.291,0 502.08,-21.6921 502.08,-48.4524z"/>
  <path class="fil3" d="M1354.79 464l36.6154 88.8887c-91.6583,9.49253 -222.331,15.4323 -367.401,15.4323 -145.07,0 -275.743,-5.93977 -367.401,-15.4323l36.6154 -88.8887 661.571 0z"/>
  <path class="fil6" d="M1476.19 714.091c-41.6433,7.19882 -86.0871,12.0969 -131.913,15.6732 -46.9855,3.66851 -96.5115,6 -146.156,8.03268l0 -28.1977c48.1571,-1.9748 96.5316,-4.27796 144.058,-7.98662 47.1933,-3.68386 92.4969,-8.70709 134.01,-16.1032l0 28.5815z"/>
  <path class="fil7" d="M792.807 707.651c16.539,0.788977 33.0922,1.49882 49.6181,2.17205l-1.10315 28.1528c-16.2095,-0.661418 -32.4095,-1.35354 -48.515,-2.11181l0 -28.213z"/>
  <path class="fil8" d="M714.386 703.119c17.1803,1.20827 34.4516,2.25355 51.7666,3.18425l0 28.2343c-17.4602,-0.922442 -34.754,-1.94646 -51.7666,-3.12284l0 -28.2957z"/>
  <path class="fil9" d="M635.964 696.16c16.9099,1.87677 34.1988,3.5067 51.7666,4.93937l0 28.3229c-17.4945,-1.41142 -34.7752,-3.02244 -51.7666,-4.88622l0 -28.376z"/>
  <path class="fil10" d="M559.88 685.332c15.9461,2.87126 32.4603,5.38819 49.4292,7.61103l0 28.4197c-16.9087,-2.18032 -33.4772,-4.65237 -49.6193,-7.47402l0 -27.4973 0.190158 -1.05945z"/>
 </g>
</svg>
