<?xml version="1.0" encoding="UTF-8"?>
<!DOCTYPE svg PUBLIC "-//W3C//DTD SVG 1.1//EN" "http://www.w3.org/Graphics/SVG/1.1/DTD/svg11.dtd">
<!-- Creator: CorelDRAW -->
<svg xmlns="http://www.w3.org/2000/svg" xml:space="preserve" width="2048px" height="2048px" style="shape-rendering:geometricPrecision; text-rendering:geometricPrecision; image-rendering:optimizeQuality; fill-rule:evenodd; clip-rule:evenodd"
viewBox="0 0 2048 2048"
 xmlns:xlink="http://www.w3.org/1999/xlink">
 <defs>
  <style type="text/css">
   <![CDATA[
    .fil2 {fill:none}
    .fil6 {fill:#212121}
    .fil7 {fill:#393939}
    .fil3 {fill:#424242}
    .fil1 {fill:#43A047}
    .fil0 {fill:#66BB6A}
    .fil8 {fill:#77C2E4}
    .fil5 {fill:#81D4FA}
    .fil9 {fill:#DADADA}
    .fil4 {fill:#EEEEEE}
   ]]>
  </style>
   <clipPath id="id0">
    <path d="M1024 -0.0011811c565.541,0 1024,458.461 1024,1024 0,565.541 -458.461,1024 -1024,1024 -565.541,0 -1024,-458.461 -1024,-1024 0,-565.541 458.461,-1024 1024,-1024z"/>
   </clipPath>
 </defs>
 <g id="Layer_x0020_1">
  <metadata id="CorelCorpID_0Corel-Layer"/>
  <path class="fil0" d="M1024 -0.0011811c565.541,0 1024,458.461 1024,1024 0,565.541 -458.461,1024 -1024,1024 -565.541,0 -1024,-458.461 -1024,-1024 0,-565.541 458.461,-1024 1024,-1024z"/>
  <g style="clip-path:url(#id0)">
   <g id="_464389320">
    <g>
     <polygon id="_4601114961" class="fil1" points="1583.17,463.999 2719.05,1599.88 2719.05,1623.18 1583.17,487.298 "/>
     <polygon id="_460111520" class="fil1" points="1583.17,487.298 2719.05,1623.18 2719.05,1739.68 1583.17,603.793 "/>
     <polygon id="_460112696" class="fil1" points="1583.17,603.793 2719.05,1739.68 2698.88,1739.68 1563,603.793 "/>
     <polygon id="_460112768" class="fil1" points="1563,603.793 2698.88,1739.68 2605.94,1739.68 1470.06,603.793 "/>
     <polygon id="_460112840" class="fil1" points="1470.06,603.793 2605.94,1739.68 2604.11,1739.7 2602.29,1739.77 2600.48,1739.89 2598.68,1740.05 2596.9,1740.26 2595.13,1740.52 2593.38,1740.82 2591.65,1741.16 2589.93,1741.55 2588.23,1741.97 2586.54,1742.45 2584.87,1742.96 2583.23,1743.51 2581.6,1744.11 2579.98,1744.74 2578.39,1745.41 2576.82,1746.12 2575.27,1746.87 2573.75,1747.66 2572.24,1748.48 2570.76,1749.34 2569.3,1750.23 2567.86,1751.16 2566.44,1752.13 2565.06,1753.12 2563.69,1754.16 2562.35,1755.22 2561.04,1756.31 2559.75,1757.44 2558.49,1758.6 2557.26,1759.79 2556.05,1761.01 1420.17,625.124 1421.38,623.906 1422.61,622.718 1423.87,621.56 1425.16,620.432 1426.47,619.337 1427.81,618.273 1429.17,617.242 1430.56,616.245 1431.98,615.28 1433.41,614.351 1434.88,613.457 1436.36,612.598 1437.87,611.775 1439.39,610.988 1440.94,610.239 1442.51,609.528 1444.1,608.856 1445.71,608.223 1447.34,607.629 1448.99,607.076 1450.66,606.564 1452.34,606.093 1454.05,605.664 1455.77,605.278 1457.5,604.934 1459.25,604.635 1461.02,604.38 1462.8,604.171 1464.6,604.006 1466.41,603.889 1468.23,603.817 "/>
     <polygon id="_460112912" class="fil1" points="1420.17,625.124 2556.05,1761.01 2554.89,1762.24 2553.75,1763.51 2552.64,1764.8 2551.56,1766.12 2550.52,1767.46 2549.5,1768.83 2548.52,1770.23 2547.57,1771.65 2546.65,1773.09 2545.76,1774.56 2544.91,1776.05 2544.1,1777.56 2543.31,1779.1 2542.57,1780.65 2541.86,1782.22 2541.18,1783.82 2540.55,1785.43 2539.95,1787.06 2539.38,1788.71 2538.86,1790.38 2538.38,1792.06 2537.93,1793.76 2537.52,1795.48 2537.16,1797.21 2536.84,1798.95 2536.55,1800.71 2536.31,1802.48 2536.12,1804.26 2535.96,1806.05 2535.85,1807.86 2535.78,1809.67 2535.76,1811.5 1399.88,675.618 1399.9,673.792 1399.97,671.976 1400.08,670.171 1400.24,668.376 1400.43,666.593 1400.67,664.824 1400.96,663.067 1401.28,661.323 1401.64,659.594 1402.05,657.879 1402.49,656.18 1402.98,654.497 1403.5,652.83 1404.06,651.181 1404.66,649.55 1405.3,647.937 1405.98,646.342 1406.69,644.768 1407.43,643.215 1408.22,641.68 1409.03,640.169 1409.88,638.679 1410.77,637.211 1411.69,635.768 1412.64,634.347 1413.62,632.952 1414.64,631.581 1415.68,630.236 1416.76,628.917 1417.87,627.625 1419.01,626.36 "/>
     <polygon id="_460112984" class="fil1" points="1399.88,675.618 2535.76,1811.5 2535.76,2162.74 1399.88,1026.85 "/>
     <polygon id="_460113056" class="fil1" points="1399.88,1026.85 2535.76,2162.74 2535.76,2508.82 1399.88,1372.93 "/>
     <polygon id="_460113128" class="fil1" points="629.749,623.906 1765.63,1759.79 1764.4,1758.6 1763.14,1757.44 1761.85,1756.31 1760.54,1755.22 1759.2,1754.16 1757.83,1753.12 1756.44,1752.13 1755.03,1751.16 1753.59,1750.23 1752.13,1749.34 1750.65,1748.48 1749.14,1747.66 1747.61,1746.87 1746.07,1746.12 1744.49,1745.41 1742.9,1744.74 1741.29,1744.11 1739.66,1743.51 1738.01,1742.96 1736.35,1742.45 1734.66,1741.97 1732.96,1741.55 1731.24,1741.16 1729.51,1740.82 1727.76,1740.52 1725.99,1740.26 1724.21,1740.05 1722.41,1739.89 1720.6,1739.77 1718.78,1739.7 1716.94,1739.68 581.063,603.793 582.898,603.817 584.721,603.889 586.53,604.006 588.326,604.171 590.108,604.38 591.874,604.635 593.625,604.934 595.361,605.278 597.08,605.664 598.782,606.093 600.467,606.564 602.134,607.076 603.782,607.629 605.412,608.223 607.023,608.856 608.613,609.528 610.184,610.239 611.734,610.988 613.261,611.775 614.768,612.598 616.251,613.457 617.712,614.351 619.15,615.28 620.563,616.245 621.952,617.242 623.318,618.273 624.656,619.337 625.969,620.432 627.257,621.56 628.516,622.718 "/>
     <polygon id="_460113200" class="fil1" points="1399.88,1372.93 2535.76,2508.82 2535.78,2510.64 2535.85,2512.46 2535.96,2514.27 2536.12,2516.06 2536.31,2517.84 2536.56,2519.61 2536.84,2521.36 2537.16,2523.1 2537.53,2524.83 2537.93,2526.53 2538.38,2528.23 2538.86,2529.9 2539.39,2531.56 2539.95,2533.2 2540.55,2534.82 2541.19,2536.43 2541.86,2538.01 2542.57,2539.58 2543.32,2541.12 2544.1,2542.64 2544.92,2544.14 2545.77,2545.62 2546.66,2547.07 2547.58,2548.51 2548.53,2549.91 2549.51,2551.3 2550.53,2552.65 2551.58,2553.99 2552.66,2555.29 2553.76,2556.57 2554.9,2557.83 2556.07,2559.05 1420.19,1423.17 1419.02,1421.94 1417.88,1420.69 1416.77,1419.41 1415.7,1418.11 1414.65,1416.77 1413.63,1415.42 1412.65,1414.03 1411.7,1412.62 1410.78,1411.19 1409.89,1409.74 1409.04,1408.26 1408.22,1406.76 1407.44,1405.24 1406.69,1403.69 1405.98,1402.13 1405.31,1400.55 1404.67,1398.94 1404.07,1397.32 1403.51,1395.68 1402.98,1394.02 1402.5,1392.34 1402.05,1390.65 1401.64,1388.94 1401.28,1387.22 1400.96,1385.48 1400.67,1383.73 1400.43,1381.96 1400.24,1380.18 1400.08,1378.39 1399.97,1376.58 1399.9,1374.76 "/>
     <polygon id="_460113272" class="fil1" points="1583.17,1560.7 2719.05,2696.58 2719.05,2719.88 1583.17,1584 "/>
     <polygon id="_460113344" class="fil1" points="581.063,603.793 1716.94,1739.68 1624.01,1739.68 488.129,603.793 "/>
     <polygon id="_460113416" class="fil1" points="488.129,603.793 1624.01,1739.68 1600.71,1739.68 464.829,603.793 "/>
     <polygon id="_460113488" class="fil1" points="488.129,1584 1624.01,2719.88 1600.71,2719.88 464.829,1584 "/>
     <polygon id="_460113560" class="fil1" points="1583.17,1444.21 2719.05,2580.09 2719.05,2696.58 1583.17,1560.7 "/>
     <polygon id="_460113632" class="fil1" points="1583.17,1584 2719.05,2719.88 2695.75,2719.88 1559.87,1584 "/>
     <polygon id="_460113704" class="fil1" points="1559.87,1584 2695.75,2719.88 1624.01,2719.88 488.129,1584 "/>
    </g>
    <path id="_464385408" class="fil1" d="M488.129 463.999l1071.74 0 23.2996 0 0 23.2996 0 116.495 -20.1721 0 -92.9339 0c-19.6465,0 -37.1918,8.18505 -49.891,21.3307 -12.5988,13.0382 -20.2925,30.965 -20.2925,50.4945l0 351.236 0 346.079c0,19.5603 7.69843,37.3276 20.3103,50.2335 12.7158,13.0099 30.2646,21.0402 49.8733,21.0402l92.9339 0 20.1721 0 0 116.493 0 23.2996 -23.2996 0 -1071.74 0 -23.2996 0 0 -23.2996 0 -116.493 23.2996 0 92.9339 0c19.6099,0 37.1575,-8.03032 49.8733,-21.0402 12.6118,-12.9059 20.3114,-30.6733 20.3114,-50.2335l0 -346.079 0 -351.236c0,-19.5295 -7.69489,-37.4563 -20.2937,-50.4945 -12.6992,-13.1457 -30.2445,-21.3307 -49.891,-21.3307l-92.9339 0 -23.2996 0 0 -116.495 0 -23.2996 23.2996 0z"/>
   </g>
  </g>
  <path class="fil2" d="M1024 -0.0011811c565.541,0 1024,458.461 1024,1024 0,565.541 -458.461,1024 -1024,1024 -565.541,0 -1024,-458.461 -1024,-1024 0,-565.541 458.461,-1024 1024,-1024z"/>
  <path class="fil3" d="M488.129 463.999l1071.74 0 23.2996 0 0 23.2996 0 116.495 -20.1721 0 -92.9339 0c-19.6465,0 -37.1918,8.18505 -49.891,21.3307 -12.5988,13.0382 -20.2925,30.965 -20.2925,50.4945l0 697.315c0,19.5603 7.69843,37.3276 20.3103,50.2335 12.7158,13.0099 30.2646,21.0402 49.8733,21.0402l92.9339 0 20.1721 0 0 116.493 0 23.2996 -23.2996 0 -1071.74 0 -23.2996 0 0 -23.2996 0 -116.493 23.2996 0 92.9339 0c19.6099,0 37.1575,-8.03032 49.8733,-21.0402 12.6118,-12.9059 20.3114,-30.6733 20.3114,-50.2335l0 -697.315c0,-19.5295 -7.69489,-37.4563 -20.2937,-50.4945 -12.6992,-13.1457 -30.2445,-21.3307 -49.891,-21.3307l-92.9339 0 -23.2996 0 0 -116.495 0 -23.2996 23.2996 0z"/>
  <polygon class="fil4" points="1466.68,1490.81 1513.28,1490.81 1513.28,1537.4 1466.68,1537.4 "/>
  <polygon class="fil4" points="1373.48,1490.81 1420.08,1490.81 1420.08,1537.4 1373.48,1537.4 "/>
  <polygon class="fil4" points="1280.29,1490.81 1326.89,1490.81 1326.89,1537.4 1280.29,1537.4 "/>
  <polygon class="fil4" points="1187.09,1490.81 1233.69,1490.81 1233.69,1537.4 1187.09,1537.4 "/>
  <polygon class="fil4" points="1093.9,1490.81 1140.5,1490.81 1140.5,1537.4 1093.9,1537.4 "/>
  <polygon class="fil4" points="1000.7,1490.81 1047.3,1490.81 1047.3,1537.4 1000.7,1537.4 "/>
  <polygon class="fil4" points="907.508,1490.81 954.106,1490.81 954.106,1537.4 907.508,1537.4 "/>
  <polygon class="fil4" points="814.312,1490.81 860.91,1490.81 860.91,1537.4 814.312,1537.4 "/>
  <polygon class="fil4" points="721.117,1490.81 767.715,1490.81 767.715,1537.4 721.117,1537.4 "/>
  <polygon class="fil4" points="627.921,1490.81 674.519,1490.81 674.519,1537.4 627.921,1537.4 "/>
  <polygon class="fil4" points="534.726,1490.81 581.324,1490.81 581.324,1537.4 534.726,1537.4 "/>
  <polygon class="fil4" points="1466.68,510.513 1513.28,510.513 1513.28,557.111 1466.68,557.111 "/>
  <polygon class="fil4" points="1373.48,510.513 1420.08,510.513 1420.08,557.111 1373.48,557.111 "/>
  <polygon class="fil4" points="1280.29,510.513 1326.89,510.513 1326.89,557.111 1280.29,557.111 "/>
  <polygon class="fil4" points="1187.09,510.513 1233.69,510.513 1233.69,557.111 1187.09,557.111 "/>
  <polygon class="fil4" points="1093.9,510.513 1140.5,510.513 1140.5,557.111 1093.9,557.111 "/>
  <polygon class="fil4" points="1000.7,510.513 1047.3,510.513 1047.3,557.111 1000.7,557.111 "/>
  <polygon class="fil4" points="907.508,510.513 954.106,510.513 954.106,557.111 907.508,557.111 "/>
  <polygon class="fil4" points="814.312,510.513 860.91,510.513 860.91,557.111 814.312,557.111 "/>
  <polygon class="fil4" points="721.117,510.513 767.715,510.513 767.715,557.111 721.117,557.111 "/>
  <polygon class="fil4" points="627.921,510.513 674.519,510.513 674.519,557.111 627.921,557.111 "/>
  <polygon class="fil4" points="534.726,510.513 581.324,510.513 581.324,557.111 534.726,557.111 "/>
  <path class="fil5" d="M792.664 603.793l462.67 0c19.6996,0 37.5933,8.04213 50.55,20.9988 12.9567,12.9567 21,30.8516 21,50.5512l0 697.315c0,19.6996 -8.04331,37.5933 -21,50.55 -12.9567,12.9567 -30.8504,20.9988 -50.55,20.9988l-462.67 0c-19.6996,0 -37.5933,-8.04213 -50.55,-20.9988 -12.9567,-12.9567 -21,-30.8504 -21,-50.55l0 -697.315c0,-19.6996 8.04331,-37.5945 21,-50.5512 12.9567,-12.9567 30.8504,-20.9988 50.55,-20.9988z"/>
  <polygon class="fil6" points="969.331,893.15 1108.52,1009.64 1129.83,1027.48 1108.52,1045.32 969.331,1161.81 931.106,1193.81 931.106,1143.98 931.106,910.988 931.106,861.158 "/>
  <path class="fil7" d="M1399.88 1026.85l0 346.079c0,19.5603 7.69843,37.3276 20.3103,50.2335 12.7158,13.0099 30.2646,21.0402 49.8733,21.0402l92.9339 0 20.1721 0 0 116.493 0 23.2996 -23.2996 0 -1071.74 0 -23.2996 0 0 -23.2996 0 -116.493 23.2996 0 92.9339 0c19.6099,0 37.1575,-8.03032 49.8733,-21.0402 12.6118,-12.9059 20.3114,-30.6733 20.3114,-50.2335l0 -346.079 69.867 0 0 345.803c0,19.6996 8.04331,37.5933 21,50.55 12.9567,12.9567 30.8504,20.9988 50.55,20.9988l462.67 0c19.6996,0 37.5933,-8.04213 50.55,-20.9988 12.9567,-12.9567 21,-30.8504 21,-50.55l0 -345.803 72.9957 0z"/>
  <path class="fil8" d="M1326.88 1026.85l0 345.803c0,19.6996 -8.04331,37.5933 -21,50.55 -12.9567,12.9567 -30.8504,20.9988 -50.55,20.9988l-462.67 0c-19.6996,0 -37.5933,-8.04213 -50.55,-20.9988 -12.9567,-12.9567 -21,-30.8504 -21,-50.55l0 -345.803 605.77 0z"/>
  <polygon class="fil9" points="1466.68,1490.81 1513.28,1490.81 1513.28,1537.4 1466.68,1537.4 "/>
  <polygon class="fil9" points="1373.48,1490.81 1420.08,1490.81 1420.08,1537.4 1373.48,1537.4 "/>
  <polygon class="fil9" points="1280.29,1490.81 1326.89,1490.81 1326.89,1537.4 1280.29,1537.4 "/>
  <polygon class="fil9" points="1187.09,1490.81 1233.69,1490.81 1233.69,1537.4 1187.09,1537.4 "/>
  <polygon class="fil9" points="1093.9,1490.81 1140.5,1490.81 1140.5,1537.4 1093.9,1537.4 "/>
  <polygon class="fil9" points="1000.7,1490.81 1047.3,1490.81 1047.3,1537.4 1000.7,1537.4 "/>
  <polygon class="fil9" points="907.508,1490.81 954.106,1490.81 954.106,1537.4 907.508,1537.4 "/>
  <polygon class="fil9" points="814.312,1490.81 860.91,1490.81 860.91,1537.4 814.312,1537.4 "/>
  <polygon class="fil9" points="721.117,1490.81 767.715,1490.81 767.715,1537.4 721.117,1537.4 "/>
  <polygon class="fil9" points="627.921,1490.81 674.519,1490.81 674.519,1537.4 627.921,1537.4 "/>
  <polygon class="fil9" points="534.726,1490.81 581.324,1490.81 581.324,1537.4 534.726,1537.4 "/>
  <polygon class="fil6" points="1129.08,1026.85 1129.83,1027.48 1108.52,1045.32 969.331,1161.81 931.106,1193.81 931.106,1143.98 931.106,1026.85 "/>
 </g>
</svg>
