<svg xmlns="http://www.w3.org/2000/svg" xml:space="preserve" width="2048" height="2048" style="shape-rendering:geometricPrecision;text-rendering:geometricPrecision;image-rendering:optimizeQuality;fill-rule:evenodd;clip-rule:evenodd"><defs><clipPath id="id0"><path d="M1024-.001c565.541 0 1024 458.46 1024 1024s-458.461 1024-1024 1024c-565.541 0-1024-458.461-1024-1024 0-565.541 458.461-1024 1024-1024z"/></clipPath><style>.fil6{fill:#212121}.fil1{fill:#43a047}.fil9{fill:#dadada}.fil4{fill:#eee}</style></defs><g id="Layer_x0020_1"><path d="M1024-.001c565.541 0 1024 458.46 1024 1024s-458.461 1024-1024 1024c-565.541 0-1024-458.461-1024-1024 0-565.541 458.461-1024 1024-1024z" style="fill:#66bb6a"/><g style="clip-path:url(#id0)"><g id="_464389320"><path id="_4601114961" class="fil1" d="M1583.17 463.999 2719.05 1599.88v23.3L1583.17 487.298z"/><path id="_460111520" class="fil1" d="M1583.17 487.298 2719.05 1623.18v116.5L1583.17 603.793z"/><path id="_460112696" class="fil1" d="M1583.17 603.793 2719.05 1739.68h-20.17L1563 603.793z"/><path id="_460112768" class="fil1" d="M1563 603.793 2698.88 1739.68h-92.94L1470.06 603.793z"/><path id="_460112840" class="fil1" d="M1470.06 603.793 2605.94 1739.68l-1.83.02-1.82.07-1.81.12-1.8.16-1.78.21-1.77.26-1.75.3-1.73.34-1.72.39-1.7.42-1.69.48-1.67.51-1.64.55-1.63.6-1.62.63-1.59.67-1.57.71-1.55.75-1.52.79-1.51.82-1.48.86-1.46.89-1.44.93-1.42.97-1.38.99-1.37 1.04-1.34 1.06-1.31 1.09-1.29 1.13-1.26 1.16-1.23 1.19-1.21 1.22L1420.17 625.124l1.21-1.218 1.23-1.188 1.26-1.158 1.29-1.128 1.31-1.095 1.34-1.064 1.36-1.031 1.39-.997 1.42-.965 1.43-.929 1.47-.894 1.48-.859 1.51-.823 1.52-.787 1.55-.749 1.57-.711 1.59-.672 1.61-.633 1.63-.594 1.65-.553 1.67-.512 1.68-.471 1.71-.429 1.72-.386 1.73-.344 1.75-.299 1.77-.255 1.78-.209 1.8-.165 1.81-.117 1.82-.072z"/><path id="_460112912" class="fil1" d="M1420.17 625.124 2556.05 1761.01l-1.16 1.23-1.14 1.27-1.11 1.29-1.08 1.32-1.04 1.34-1.02 1.37-.98 1.4-.95 1.42-.92 1.44-.89 1.47-.85 1.49-.81 1.51-.79 1.54-.74 1.55-.71 1.57-.68 1.6-.63 1.61-.6 1.63-.57 1.65-.52 1.67-.48 1.68-.45 1.7-.41 1.72-.36 1.73-.32 1.74-.29 1.76-.24 1.77-.19 1.78-.16 1.79-.11 1.81-.07 1.81-.02 1.83L1399.88 675.618l.02-1.826.07-1.816.11-1.805.16-1.795.19-1.783.24-1.769.29-1.757.32-1.744.36-1.729.41-1.715.44-1.699.49-1.683.52-1.667.56-1.649.6-1.631.64-1.613.68-1.595.71-1.574.74-1.553.79-1.535.81-1.511.85-1.49.89-1.468.92-1.443.95-1.421.98-1.395 1.02-1.371 1.04-1.345 1.08-1.319 1.11-1.292 1.14-1.265z"/><path id="_460112984" class="fil1" d="M1399.88 675.618 2535.76 1811.5v351.24L1399.88 1026.85z"/><path id="_460113056" class="fil1" d="m1399.88 1026.85 1135.88 1135.89v346.08L1399.88 1372.93z"/><path id="_460113128" class="fil1" d="M629.749 623.906 1765.63 1759.79l-1.23-1.19-1.26-1.16-1.29-1.13-1.31-1.09-1.34-1.06-1.37-1.04-1.39-.99-1.41-.97-1.44-.93-1.46-.89-1.48-.86-1.51-.82-1.53-.79-1.54-.75-1.58-.71-1.59-.67-1.61-.63-1.63-.6-1.65-.55-1.66-.51-1.69-.48-1.7-.42-1.72-.39-1.73-.34-1.75-.3-1.77-.26-1.78-.21-1.8-.16-1.81-.12-1.82-.07-1.84-.02L581.063 603.793l1.835.024 1.823.072 1.809.117 1.796.165 1.782.209 1.766.255 1.751.299 1.736.344 1.719.386 1.702.429 1.685.471 1.667.512 1.648.553 1.63.594 1.611.633 1.59.672 1.571.711 1.55.749 1.527.787 1.507.823 1.483.859 1.461.894 1.438.929 1.413.965 1.389.997 1.366 1.031 1.338 1.064 1.313 1.095 1.288 1.128 1.259 1.158z"/><path id="_460113200" class="fil1" d="m1399.88 1372.93 1135.88 1135.89.02 1.82.07 1.82.11 1.81.16 1.79.19 1.78.25 1.77.28 1.75.32 1.74.37 1.73.4 1.7.45 1.7.48 1.67.53 1.66.56 1.64.6 1.62.64 1.61.67 1.58.71 1.57.75 1.54.78 1.52.82 1.5.85 1.48.89 1.45.92 1.44.95 1.4.98 1.39 1.02 1.35 1.05 1.34 1.08 1.3 1.1 1.28 1.14 1.26 1.17 1.22-1135.88-1135.88-1.17-1.23-1.14-1.25-1.11-1.28-1.07-1.3-1.05-1.34-1.02-1.35-.98-1.39-.95-1.41-.92-1.43-.89-1.45-.85-1.48-.82-1.5-.78-1.52-.75-1.55-.71-1.56-.67-1.58-.64-1.61-.6-1.62-.56-1.64-.53-1.66-.48-1.68-.45-1.69-.41-1.71-.36-1.72-.32-1.74-.29-1.75-.24-1.77-.19-1.78-.16-1.79-.11-1.81-.07-1.82z"/><path id="_460113272" class="fil1" d="m1583.17 1560.7 1135.88 1135.88v23.3L1583.17 1584z"/><path id="_460113344" class="fil1" d="M581.063 603.793 1716.94 1739.68h-92.93L488.129 603.793z"/><path id="_460113416" class="fil1" d="M488.129 603.793 1624.01 1739.68h-23.3L464.829 603.793z"/><path id="_460113488" class="fil1" d="M488.129 1584 1624.01 2719.88h-23.3L464.829 1584z"/><path id="_460113560" class="fil1" d="m1583.17 1444.21 1135.88 1135.88v116.49L1583.17 1560.7z"/><path id="_460113632" class="fil1" d="m1583.17 1584 1135.88 1135.88h-23.3L1559.87 1584z"/><path id="_460113704" class="fil1" d="m1559.87 1584 1135.88 1135.88H1624.01L488.129 1584z"/><path id="_464385408" class="fil1" d="M488.129 463.999h1095.04V603.794h-113.106c-19.647 0-37.192 8.185-49.891 21.33-12.6 13.038-20.293 30.965-20.293 50.495v697.315c0 19.56 7.699 37.327 20.31 50.233 12.716 13.01 30.265 21.04 49.874 21.04h113.106V1584H464.829v-139.793h116.234c19.61 0 37.158-8.03 49.873-21.04 12.612-12.906 20.312-30.673 20.312-50.233V675.619c0-19.53-7.695-37.456-20.294-50.495-12.7-13.145-30.244-21.33-49.891-21.33H464.829V463.999h23.3z"/></g></g><path d="M1024-.001c565.541 0 1024 458.46 1024 1024s-458.461 1024-1024 1024c-565.541 0-1024-458.461-1024-1024 0-565.541 458.461-1024 1024-1024z" style="fill:none"/><path d="M488.129 463.999h1095.04V603.794h-113.106c-19.647 0-37.192 8.185-49.891 21.33-12.6 13.038-20.293 30.965-20.293 50.495v697.315c0 19.56 7.699 37.327 20.31 50.233 12.716 13.01 30.265 21.04 49.874 21.04h113.106V1584H464.829v-139.793h116.234c19.61 0 37.158-8.03 49.873-21.04 12.612-12.906 20.312-30.673 20.312-50.233V675.619c0-19.53-7.695-37.457-20.294-50.495-12.7-13.145-30.244-21.33-49.891-21.33H464.829V463.999h23.3z" style="fill:#424242"/><path class="fil4" d="M1466.68 1490.81h46.6v46.59h-46.6zM1373.48 1490.81h46.6v46.59h-46.6zM1280.29 1490.81h46.6v46.59h-46.6zM1187.09 1490.81h46.6v46.59h-46.6zM1093.9 1490.81h46.6v46.59h-46.6zM1000.7 1490.81h46.6v46.59h-46.6zM907.508 1490.81h46.598v46.59h-46.598zM814.312 1490.81h46.598v46.59h-46.598zM721.117 1490.81h46.598v46.59h-46.598zM627.921 1490.81h46.598v46.59h-46.598zM534.726 1490.81h46.598v46.59h-46.598zM1466.68 510.513h46.6v46.598h-46.6zM1373.48 510.513h46.6v46.598h-46.6zM1280.29 510.513h46.6v46.598h-46.6zM1187.09 510.513h46.6v46.598h-46.6zM1093.9 510.513h46.6v46.598h-46.6zM1000.7 510.513h46.6v46.598h-46.6zM907.508 510.513h46.598v46.598h-46.598zM814.312 510.513h46.598v46.598h-46.598zM721.117 510.513h46.598v46.598h-46.598zM627.921 510.513h46.598v46.598h-46.598zM534.726 510.513h46.598v46.598h-46.598z"/><path d="M792.664 603.793h462.67c19.7 0 37.593 8.042 50.55 20.999 12.957 12.956 21 30.851 21 50.551v697.315c0 19.7-8.043 37.593-21 50.55-12.957 12.957-30.85 20.999-50.55 20.999h-462.67c-19.7 0-37.593-8.042-50.55-20.999-12.957-12.957-21-30.85-21-50.55V675.343c0-19.7 8.043-37.595 21-50.551 12.957-12.957 30.85-20.999 50.55-20.999z" style="fill:#81d4fa"/><path class="fil6" d="m969.331 893.15 139.189 116.49 21.31 17.84-21.31 17.84-139.189 116.49-38.225 32V861.158z"/><path d="M1399.88 1026.85v346.079c0 19.56 7.698 37.328 20.31 50.233 12.716 13.01 30.265 21.04 49.874 21.04h113.106v139.794H464.83v-139.793h116.234c19.61 0 37.157-8.03 49.873-21.04 12.612-12.906 20.312-30.674 20.312-50.234V1026.85h69.867v345.803c0 19.7 8.043 37.593 21 50.55 12.956 12.957 30.85 20.999 50.55 20.999h462.67c19.7 0 37.593-8.042 50.55-20.999 12.956-12.957 21-30.85 21-50.55V1026.85h72.995z" style="fill:#393939"/><path d="M1326.88 1026.85v345.803c0 19.7-8.043 37.593-21 50.55-12.957 12.957-30.85 20.999-50.55 20.999H792.66c-19.7 0-37.593-8.042-50.55-20.999-12.957-12.957-21-30.85-21-50.55V1026.85h605.77z" style="fill:#77c2e4"/><path class="fil9" d="M1466.68 1490.81h46.6v46.59h-46.6zM1373.48 1490.81h46.6v46.59h-46.6zM1280.29 1490.81h46.6v46.59h-46.6zM1187.09 1490.81h46.6v46.59h-46.6zM1093.9 1490.81h46.6v46.59h-46.6zM1000.7 1490.81h46.6v46.59h-46.6zM907.508 1490.81h46.598v46.59h-46.598zM814.312 1490.81h46.598v46.59h-46.598zM721.117 1490.81h46.598v46.59h-46.598zM627.921 1490.81h46.598v46.59h-46.598zM534.726 1490.81h46.598v46.59h-46.598z"/><path class="fil6" d="m1129.08 1026.85.75.63-21.31 17.84-139.189 116.49-38.225 32V1026.85z"/></g></svg>
