<?xml version="1.0" encoding="UTF-8"?>
<!DOCTYPE svg PUBLIC "-//W3C//DTD SVG 1.1//EN" "http://www.w3.org/Graphics/SVG/1.1/DTD/svg11.dtd">
<!-- Creator: CorelDRAW X5 -->
<svg xmlns="http://www.w3.org/2000/svg" xml:space="preserve" width="2048px" height="2048px" style="shape-rendering:geometricPrecision; text-rendering:geometricPrecision; image-rendering:optimizeQuality; fill-rule:evenodd; clip-rule:evenodd"
viewBox="0 0 2048 2048"
 xmlns:xlink="http://www.w3.org/1999/xlink">
 <defs>
  <style type="text/css">
   <![CDATA[
    .fil7 {fill:none}
    .fil3 {fill:#212121}
    .fil4 {fill:#393939}
    .fil0 {fill:#424242}
    .fil5 {fill:#77C2E4}
    .fil2 {fill:#81D4FA}
    .fil6 {fill:#DADADA}
    .fil1 {fill:#EEEEEE}
   ]]>
  </style>
 </defs>
 <g id="Layer_x0020_1">
  <metadata id="CorelCorpID_0Corel-Layer"/>
  <g id="_353373712">
   <g>
    <path class="fil0" d="M288 254l1472 0 32 0 0 32 0 160 -28 0 -128 0c-27,0 -51,11 -69,29 -17,18 -28,43 -28,69l0 958c0,27 11,51 28,69 17,18 42,29 68,29l128 0 28 0 0 160 0 32 -32 0 -1472 0 -32 0 0 -32 0 -160 32 0 128 0c27,0 51,-11 68,-29 17,-18 28,-42 28,-69l0 -958c0,-27 -11,-51 -28,-69 -17,-18 -42,-29 -69,-29l-128 0 -32 0 0 -160 0 -32 32 0z"/>
    <polygon class="fil1" points="1632,1664 1696,1664 1696,1728 1632,1728 "/>
    <polygon class="fil1" points="1504,1664 1568,1664 1568,1728 1504,1728 "/>
    <polygon class="fil1" points="1376,1664 1440,1664 1440,1728 1376,1728 "/>
    <polygon class="fil1" points="1248,1664 1312,1664 1312,1728 1248,1728 "/>
    <polygon class="fil1" points="1120,1664 1184,1664 1184,1728 1120,1728 "/>
    <polygon class="fil1" points="992,1664 1056,1664 1056,1728 992,1728 "/>
    <polygon class="fil1" points="864,1664 928,1664 928,1728 864,1728 "/>
    <polygon class="fil1" points="736,1664 800,1664 800,1728 736,1728 "/>
    <polygon class="fil1" points="608,1664 672,1664 672,1728 608,1728 "/>
    <polygon class="fil1" points="480,1664 544,1664 544,1728 480,1728 "/>
    <polygon class="fil1" points="352,1664 416,1664 416,1728 352,1728 "/>
    <polygon class="fil1" points="1632,318 1696,318 1696,382 1632,382 "/>
    <polygon class="fil1" points="1504,318 1568,318 1568,382 1504,382 "/>
    <polygon class="fil1" points="1376,318 1440,318 1440,382 1376,382 "/>
    <polygon class="fil1" points="1248,318 1312,318 1312,382 1248,382 "/>
    <polygon class="fil1" points="1120,318 1184,318 1184,382 1120,382 "/>
    <polygon class="fil1" points="992,318 1056,318 1056,382 992,382 "/>
    <polygon class="fil1" points="864,318 928,318 928,382 864,382 "/>
    <polygon class="fil1" points="736,318 800,318 800,382 736,382 "/>
    <polygon class="fil1" points="608,318 672,318 672,382 608,382 "/>
    <polygon class="fil1" points="480,318 544,318 544,382 480,382 "/>
    <polygon class="fil1" points="352,318 416,318 416,382 352,382 "/>
    <path class="fil2" d="M706 446l635 0c27,0 52,11 69,29 18,18 29,42 29,69l0 958c0,27 -11,52 -29,69 -18,18 -42,29 -69,29l-635 0c-27,0 -52,-11 -69,-29 -18,-18 -29,-42 -29,-69l0 -958c0,-27 11,-52 29,-69 18,-18 42,-29 69,-29z"/>
    <polygon class="fil3" points="949,843 1140,1003 1169,1028 1140,1052 949,1212 896,1256 896,1188 896,868 896,799 "/>
   </g>
   <path class="fil4" d="M1540 1027l0 475c0,27 11,51 28,69 17,18 42,29 68,29l128 0 28 0 0 160 0 32 -32 0 -1472 0 -32 0 0 -32 0 -160 32 0 128 0c27,0 51,-11 68,-29 17,-18 28,-42 28,-69l0 -475 96 0 0 475c0,27 11,52 29,69 18,18 42,29 69,29l635 0c27,0 52,-11 69,-29 18,-18 29,-42 29,-69l0 -475 100 0z"/>
   <path class="fil5" d="M1440 1027l0 475c0,27 -11,52 -29,69 -18,18 -42,29 -69,29l-635 0c-27,0 -52,-11 -69,-29 -18,-18 -29,-42 -29,-69l0 -475 832 0z"/>
   <polygon class="fil6" points="1632,1664 1696,1664 1696,1728 1632,1728 "/>
   <polygon class="fil6" points="1504,1664 1568,1664 1568,1728 1504,1728 "/>
   <polygon class="fil6" points="1376,1664 1440,1664 1440,1728 1376,1728 "/>
   <polygon class="fil6" points="1248,1664 1312,1664 1312,1728 1248,1728 "/>
   <polygon class="fil6" points="1120,1664 1184,1664 1184,1728 1120,1728 "/>
   <polygon class="fil6" points="992,1664 1056,1664 1056,1728 992,1728 "/>
   <polygon class="fil6" points="864,1664 928,1664 928,1728 864,1728 "/>
   <polygon class="fil6" points="736,1664 800,1664 800,1728 736,1728 "/>
   <polygon class="fil6" points="608,1664 672,1664 672,1728 608,1728 "/>
   <polygon class="fil6" points="480,1664 544,1664 544,1728 480,1728 "/>
   <polygon class="fil6" points="352,1664 416,1664 416,1728 352,1728 "/>
   <polygon class="fil3" points="1168,1027 1169,1028 1140,1052 949,1212 896,1256 896,1188 896,1027 "/>
  </g>
  <rect class="fil7" width="2048" height="2048"/>
 </g>
</svg>
